<svg xmlns="http://www.w3.org/2000/svg" width="64" height="64" viewBox="0 0 64 64"><path d="M6 17 a5 5 0 0 1 5 -5 H23 c4 0 4 5.5 8 5.5 H53 a5 5 0 0 1 5 5 V50 a5 5 0 0 1 -5 5 H11 a5 5 0 0 1 -5 -5 Z" fill="#1D4794"/><rect x="6" y="23.5" width="52" height="31.5" rx="7" fill="#2A5FC4"/><path d="M12.5 24.5 H51.5" fill="none" stroke="#8AAEF5" stroke-width="1" stroke-linecap="round" stroke-linejoin="round"/><rect x="27.5" y="26.5" width="9" height="3.6" rx="1.8" fill="#F2A33A"/><g transform="translate(32 40) scale(0.84) translate(-32 -41)"><path d="M32 31 V45 M26 40 L32 46 L38 40 M25 51 H39" fill="none" stroke="#FFFFFF" stroke-width="2.6" stroke-linecap="round" stroke-linejoin="round"/></g></svg>
